<svg width="26" height="25" viewBox="0 0 26 25" fill="none" xmlns="http://www.w3.org/2000/svg">
<path d="M15.944 1.448V9.512H24.056C24.632 9.512 25.048 9.976 25.304 10.904C25.432 11.384 25.496 11.848 25.496 12.296C25.496 12.744 25.432 13.208 25.304 13.688C25.048 14.616 24.632 15.08 24.056 15.08H15.944V23.288C15.944 23.864 15.48 24.28 14.552 24.536C14.104 24.664 13.64 24.728 13.16 24.728L11.768 24.536C10.84 24.28 10.376 23.864 10.376 23.288V15.08H2.216C1.64 15.08 1.224 14.616 0.968 13.688C0.84 13.208 0.776 12.744 0.776 12.296C0.776 11.848 0.84 11.384 0.968 10.904C1.224 9.976 1.64 9.512 2.216 9.512H10.376V1.448C10.376 0.872 10.84 0.455999 11.768 0.199999C12.216 0.0719986 12.68 0.00799847 13.16 0.00799847L14.552 0.199999C15.48 0.455999 15.944 0.872 15.944 1.448Z" fill="#C89E00"/>
</svg>
